<svg xmlns="http://www.w3.org/2000/svg" xmlns:xlink="http://www.w3.org/1999/xlink" width="400" height="400" viewBox="0 0 400 400"><defs><linearGradient id="gradient-8" x1="0%" y1="0%" x2="100%" y2="0%">       <stop offset="0%" stop-color="#ad5389"/>       <stop offset="100%" stop-color="#3c1053"/>     </linearGradient></defs><g data-name="icon" fill="url(#gradient-8)" data="id:7157077" transform="translate(3.5627089400341383, 3.5638217257357923) scale(3.928755487822584)">
    
 <path d="m40.387 20.539h19.246v19.844h11.094c1.6367-4.3164 2.8125-8.3945 3.5234-12.07 1.4844-7.7734 0.79688-13.531-2.3906-15.395-1.3945-0.84375-3.2539-0.84375-5.4258-0.17578-2.4805 0.77344-5.3359 2.4375-8.3711 4.8516-0.64453 0.50781-1.5703 0.39453-2.1055-0.24609-0.50781-0.64062-0.39453-1.5938 0.24219-2.1016 3.3203-2.6367 6.4922-4.4727 9.3477-5.3594 2.9922-0.92969 5.6445-0.81641 7.8164 0.44531 4.4062 2.5898 5.5352 9.5 3.832 18.535-1.6406 8.5703-5.8008 19.246-12.137 29.984-6.332 10.766-13.641 19.578-20.352 25.18-7.0664 5.8906-13.645 8.2383-18.051 5.6484-2.8789-1.7031-4.3594-5.1602-4.5859-9.832-0.19922-4.4961 0.75391-10.211 2.7695-16.547 0.26562-0.79688 1.1055-1.2188 1.8828-0.97266 0.79688 0.24219 1.2188 1.0859 0.97656 1.8594-1.9023 6.0234-2.8125 11.359-2.6367 15.523 0.17578 3.6328 1.1758 6.2461 3.1016 7.375 3.2109 1.8828 8.5703-0.3125 14.641-5.3594 0.84375-0.71094 1.7031-1.4648 2.5469-2.2617h-4.9609l-0.003906-19.836h-19.84v-8.1289h-8.6367c-0.57422 1.2383-1.8164 2.1055-3.2773 2.1055-2.0156 0-3.6328-1.6172-3.6328-3.6094 0-1.9922 1.6172-3.6094 3.6328-3.6094 1.4609 0 2.7031 0.86328 3.2773 2.1055h8.6367v-8.1055h19.844zm20.73 39.09h-1.4844v2.3242c0.48828-0.75391 1-1.5273 1.4844-2.3242zm26.996-11.141h-8.6367v-8.1055h-2.3711c-2.3672 6.7344-5.6055 13.355-9.0156 19.246h11.383l0.003906-8.1289h8.6367c0.55469 1.2383 1.8164 2.1055 3.2773 2.1055 1.9922 0 3.6094-1.6172 3.6094-3.6094 0-1.9922-1.6172-3.6094-3.6094-3.6094-1.4609 0-2.7227 0.85938-3.2773 2.1016zm-10.055-10.918h6.4688c0.59766 0 1.1055-0.35547 1.3516-0.84375l3.5664-6.1797c0.11328 0.023437 0.22266 0.023437 0.35547 0.023437 1.9922 0 3.6094-1.6172 3.6094-3.6094 0-1.9922-1.6172-3.6094-3.6094-3.6094-2.0156 0-3.6328 1.6172-3.6328 3.6094 0 0.77344 0.26562 1.5078 0.6875 2.1055l-3.1875 5.5156h-4.7188c-0.26953 0.99609-0.57812 1.9922-0.89062 2.9883zm-10.453 24.852c-0.84375 0-1.5078 0.66406-1.5078 1.5039 0 0.82031 0.66406 1.4844 1.5078 1.4844h16.059l3.1875 5.5156c-0.42187 0.59766-0.6875 1.3281-0.6875 2.1055 0 1.9922 1.6172 3.6094 3.6328 3.6094 1.9922 0 3.6094-1.6172 3.6094-3.6094s-1.6172-3.6094-3.6094-3.6094c-0.13281 0-0.24219 0-0.35547 0.023437l-3.5664-6.1797c-0.24219-0.48828-0.75391-0.83984-1.3516-0.83984zm-35.191-27.84c0.82031 0 1.5078 0.66406 1.5078 1.4844 0 0.84375-0.6875 1.5078-1.5078 1.5078l-16.918-0.003907c-0.59766 0-1.1094-0.35547-1.3516-0.84375l-3.5664-6.1797c-0.10938 0.023437-0.22266 0.023437-0.35547 0.023437-1.9922 0-3.6094-1.6172-3.6094-3.6094 0-1.9922 1.6172-3.6094 3.6094-3.6094 1.9922 0 3.6094 1.6172 3.6094 3.6094 0 0.77344-0.24219 1.5078-0.66406 2.1055l3.1875 5.5156 16.059-0.003906zm-11.316 30.824h-4.7383l-3.1875 5.5156c0.42188 0.59766 0.66406 1.3281 0.66406 2.1055 0 1.9922-1.6172 3.6094-3.6094 3.6094-1.9922 0-3.6094-1.6172-3.6094-3.6094 0-1.9922 1.6172-3.6094 3.6094-3.6094 0.13281 0 0.24219 0 0.35547 0.023437l3.5664-6.1797c0.24219-0.48828 0.75391-0.83984 1.3516-0.83984h6.4883c-0.3125 0.97266-0.62109 1.9688-0.89062 2.9844zm38.535 7v7.0664h-5.8672c2.0586-2.2383 4.0078-4.6289 5.8672-7.0664z" fill-rule="evenodd"/>

    </g></svg>