<svg xmlns="http://www.w3.org/2000/svg" xmlns:xlink="http://www.w3.org/1999/xlink" width="400" height="400" viewBox="0 0 400 400"><defs><linearGradient id="gradient-8" x1="0%" y1="0%" x2="100%" y2="0%">       <stop offset="0%" stop-color="#ad5389"/>       <stop offset="100%" stop-color="#3c1053"/>     </linearGradient></defs>
<rect data-name="background" width="100%" height="100%" fill="none"/><g data-name="icon" fill="url(#gradient-8)" data="id:7157077" transform="translate(5.051938078937623,126.95287057689985) scale(1.4609544591628318)">
    
 <path d="m40.387 20.539h19.246v19.844h11.094c1.6367-4.3164 2.8125-8.3945 3.5234-12.07 1.4844-7.7734 0.79688-13.531-2.3906-15.395-1.3945-0.84375-3.2539-0.84375-5.4258-0.17578-2.4805 0.77344-5.3359 2.4375-8.3711 4.8516-0.64453 0.50781-1.5703 0.39453-2.1055-0.24609-0.50781-0.64062-0.39453-1.5938 0.24219-2.1016 3.3203-2.6367 6.4922-4.4727 9.3477-5.3594 2.9922-0.92969 5.6445-0.81641 7.8164 0.44531 4.4062 2.5898 5.5352 9.5 3.832 18.535-1.6406 8.5703-5.8008 19.246-12.137 29.984-6.332 10.766-13.641 19.578-20.352 25.18-7.0664 5.8906-13.645 8.2383-18.051 5.6484-2.8789-1.7031-4.3594-5.1602-4.5859-9.832-0.19922-4.4961 0.75391-10.211 2.7695-16.547 0.26562-0.79688 1.1055-1.2188 1.8828-0.97266 0.79688 0.24219 1.2188 1.0859 0.97656 1.8594-1.9023 6.0234-2.8125 11.359-2.6367 15.523 0.17578 3.6328 1.1758 6.2461 3.1016 7.375 3.2109 1.8828 8.5703-0.3125 14.641-5.3594 0.84375-0.71094 1.7031-1.4648 2.5469-2.2617h-4.9609l-0.003906-19.836h-19.84v-8.1289h-8.6367c-0.57422 1.2383-1.8164 2.1055-3.2773 2.1055-2.0156 0-3.6328-1.6172-3.6328-3.6094 0-1.9922 1.6172-3.6094 3.6328-3.6094 1.4609 0 2.7031 0.86328 3.2773 2.1055h8.6367v-8.1055h19.844zm20.73 39.09h-1.4844v2.3242c0.48828-0.75391 1-1.5273 1.4844-2.3242zm26.996-11.141h-8.6367v-8.1055h-2.3711c-2.3672 6.7344-5.6055 13.355-9.0156 19.246h11.383l0.003906-8.1289h8.6367c0.55469 1.2383 1.8164 2.1055 3.2773 2.1055 1.9922 0 3.6094-1.6172 3.6094-3.6094 0-1.9922-1.6172-3.6094-3.6094-3.6094-1.4609 0-2.7227 0.85938-3.2773 2.1016zm-10.055-10.918h6.4688c0.59766 0 1.1055-0.35547 1.3516-0.84375l3.5664-6.1797c0.11328 0.023437 0.22266 0.023437 0.35547 0.023437 1.9922 0 3.6094-1.6172 3.6094-3.6094 0-1.9922-1.6172-3.6094-3.6094-3.6094-2.0156 0-3.6328 1.6172-3.6328 3.6094 0 0.77344 0.26562 1.5078 0.6875 2.1055l-3.1875 5.5156h-4.7188c-0.26953 0.99609-0.57812 1.9922-0.89062 2.9883zm-10.453 24.852c-0.84375 0-1.5078 0.66406-1.5078 1.5039 0 0.82031 0.66406 1.4844 1.5078 1.4844h16.059l3.1875 5.5156c-0.42187 0.59766-0.6875 1.3281-0.6875 2.1055 0 1.9922 1.6172 3.6094 3.6328 3.6094 1.9922 0 3.6094-1.6172 3.6094-3.6094s-1.6172-3.6094-3.6094-3.6094c-0.13281 0-0.24219 0-0.35547 0.023437l-3.5664-6.1797c-0.24219-0.48828-0.75391-0.83984-1.3516-0.83984zm-35.191-27.84c0.82031 0 1.5078 0.66406 1.5078 1.4844 0 0.84375-0.6875 1.5078-1.5078 1.5078l-16.918-0.003907c-0.59766 0-1.1094-0.35547-1.3516-0.84375l-3.5664-6.1797c-0.10938 0.023437-0.22266 0.023437-0.35547 0.023437-1.9922 0-3.6094-1.6172-3.6094-3.6094 0-1.9922 1.6172-3.6094 3.6094-3.6094 1.9922 0 3.6094 1.6172 3.6094 3.6094 0 0.77344-0.24219 1.5078-0.66406 2.1055l3.1875 5.5156 16.059-0.003906zm-11.316 30.824h-4.7383l-3.1875 5.5156c0.42188 0.59766 0.66406 1.3281 0.66406 2.1055 0 1.9922-1.6172 3.6094-3.6094 3.6094-1.9922 0-3.6094-1.6172-3.6094-3.6094 0-1.9922 1.6172-3.6094 3.6094-3.6094 0.13281 0 0.24219 0 0.35547 0.023437l3.5664-6.1797c0.24219-0.48828 0.75391-0.83984 1.3516-0.83984h6.4883c-0.3125 0.97266-0.62109 1.9688-0.89062 2.9844zm38.535 7v7.0664h-5.8672c2.0586-2.2383 4.0078-4.6289 5.8672-7.0664z" fill-rule="evenodd"/>

    </g><g data-name="business_name" fill="url(#gradient-8)" data="id:10" transform="translate(165.31434937388664,153.7585410284602) scale(1.4459491593991398)"><path d="M2.44,48l0-32.4l9.52,0q2.92,0,4.74,1.08t2.68,3.14t0.86,4.98q0,3.16-1.08,5.1t-3.02,2.82t-4.58,0.88l-3.2,0l0,14.4l-5.92,0z M8.36,29.44l2.24,0q1.6,0,2.5-0.46t1.24-1.48t0.34-2.74q0-1.76-0.26-2.86t-1.12-1.62t-2.7-0.52l-2.24,0l0,9.68z M26.88,48.36q-1.36,0-2.24-0.7t-1.28-1.88t-0.4-2.5l0-18.4l5.44,0l0,17.4q0,1.04,0.34,1.62t1.26,0.58q0.6,0,1.22-0.32t1.22-0.76l0-18.52l5.44,0l0,23.12l-5.44,0l0-2.2q-1.16,1.12-2.56,1.84t-3,0.72z M42.44,48l0-32.4l5.4,0l0,32.4l-5.4,0z M58.44,48.36q-2.92,0-4.8-1.56t-2.68-4.56l4.04-1.56q0.48,1.88,1.28,2.88t2.08,1q0.96,0,1.44-0.48t0.48-1.32q0-0.96-0.58-1.74t-1.98-1.94l-2.8-2.36q-1.52-1.32-2.46-2.7t-0.94-3.46q0-1.88,0.86-3.22t2.36-2.08t3.34-0.74q2.8,0,4.5,1.66t2.18,4.34l-3.56,1.52q-0.2-0.96-0.58-1.78t-0.98-1.34t-1.4-0.52q-0.84,0-1.34,0.52t-0.5,1.32q0,0.68,0.58,1.4t1.66,1.64l2.84,2.56q0.92,0.8,1.76,1.72t1.4,2.06t0.56,2.62q0,2-0.9,3.36t-2.44,2.06t-3.42,0.7z M75.16,48.36q-2.6,0-4.24-0.98t-2.42-2.88t-0.78-4.58l0-6.96q0-2.76,0.78-4.64t2.44-2.84t4.22-0.96q2.76,0,4.3,1.04t2.2,3.02t0.66,4.82l0,3.28l-9.2,0l0,4.56q0,1.12,0.22,1.84t0.7,1.04t1.16,0.32q0.72,0,1.16-0.34t0.64-1t0.2-1.66l0-1.92l5.08,0l0,1.56q0,3.52-1.76,5.4t-5.36,1.88z M73.12,34l4.08,0l0-2.2q0-1.2-0.2-1.94t-0.64-1.08t-1.24-0.34q-0.72,0-1.16,0.36t-0.64,1.2t-0.2,2.4l0,1.6z M89.6,48l0-28.04l-5.16,0l0-4.36l16.16,0l0,4.36l-5.08,0l0,28.04l-5.92,0z M110.2,48.36q-2.6,0-4.24-0.98t-2.42-2.88t-0.78-4.58l0-6.96q0-2.76,0.78-4.64t2.44-2.84t4.22-0.96q2.76,0,4.3,1.04t2.2,3.02t0.66,4.82l0,3.28l-9.2,0l0,4.56q0,1.12,0.22,1.84t0.7,1.04t1.16,0.32q0.72,0,1.16-0.34t0.64-1t0.2-1.66l0-1.92l5.08,0l0,1.56q0,3.52-1.76,5.4t-5.36,1.88z M108.16,34l4.08,0l0-2.2q0-1.2-0.2-1.94t-0.64-1.08t-1.24-0.34q-0.72,0-1.16,0.36t-0.64,1.2t-0.2,2.4l0,1.6z M128,48.36q-2.68,0-4.3-1.02t-2.36-2.92t-0.74-4.5l0-6.96q0-2.68,0.74-4.56t2.38-2.88t4.28-1q2.48,0,4.06,0.78t2.3,2.36t0.72,3.98l0,1.92l-5.12,0l0-2.04q0-1.2-0.18-1.9t-0.62-1t-1.16-0.3t-1.16,0.38t-0.62,1.22t-0.18,2.32l0,8.48q0,2.24,0.48,3.02t1.52,0.78q0.8,0,1.22-0.36t0.56-1.06t0.14-1.7l0-2.48l5.12,0l0,2.2q0,2.32-0.74,3.96t-2.32,2.46t-4.02,0.82z M138.72,48l0-32.4l5.44,0l0,11.48q1.2-1.2,2.62-1.88t3.1-0.68q1.4,0,2.24,0.7t1.24,1.86t0.4,2.52l0,18.4l-5.44,0l0-17.32q0-1.04-0.32-1.6t-1.24-0.56q-0.56,0-1.26,0.32t-1.34,0.84l0,18.32l-5.44,0z"/></g></svg>